{"title":"Summer.Of.Dreams.2016.720p.HDTV.x264-TheRealTTL","uid":15759373,"size":2536025748,"categoryP":"video","categoryS":"hd___tv_shows","magnet":"?xt=urn:btih:f0337755bfcd866e8d2846ddf4a34732b6a85149&amp;dn=Summer.Of.Dreams.2016.720p.HDTV.x264-TheRealTTL&amp;tr=udp%3A%2F%2Ftracker.leechers-paradise.org%3A6969&amp;tr=udp%3A%2F%2Fzer0day.ch%3A1337&amp;tr=udp%3A%2F%2Fopen.demonii.com%3A1337&amp;tr=udp%3A%2F%2Ftracker.coppersurfer.tk%3A6969&amp;tr=udp%3A%2F%2Fexodus.desync.com%3A6969","seeders":2,"leechers":2,"uploader":"thetorrentlord","files":3,"time":1473093742,"description":"Hallmark movie.\t\t\t\t\t\t\t\t\t\t\t\t\t\t\t\t\t\t\t\t\t\t\t\t\t\tGrab the sample and if you like it then go for it.\t\t\t\t\t\t\t\t\t\t\t\t\t\t\t\t\t\t\t\t\t\t\t\t\t\t\t\t\t\t\t\t\t\t\tEnjoy and please share.\t\t\t\t\t\t\t\t\t\t\t\t\t\t\t\t\t\t\t\t\t\t\t\t\t\t\t\t\t\t\t\t\t\t\t\t\t\t\t\t\t\t\t\t\t\t\t\t\t\t\t\t\t\t\t\t\t\t\t\t\t\t\t\tSummer.Of.Dreams.2016.720p.HDTV.x264-TheRealTTL.mkv\r\nFormat                           : Matroska\r\nFile size                        : 2.33 GiB\r\nDuration                         : 1h 23mn\r\nOverall bit rate                 : 3 983 Kbps\r\nMovie name                       : Summer.Of.Dreams.2016.720p.HDTV.x264-TheRealTTL\r\nEncoded date                     : UTC 2016-09-05 14:13:34\r\nWriting application              : mkvmerge v3.3.0 ('Language') built on Mar 24 2010 14:59:24\r\nWriting library                  : libebml v0.8.0 + libmatroska v0.9.0\r\n\r\nVideo\r\nID                               : 1\r\nFormat                           : AVC\r\nFormat/Info                      : Advanced Video Codec\r\nFormat profile                   :   \r\nFormat settings, CABAC           : Yes\r\nFormat settings, ReFrames        : 4 frames\r\nMuxing mode                      : Container   \r\nCodec ID                         : V_MPEG4/ISO/AVC\r\nDuration                         : 1h 23mn\r\nBit rate                         : 3 584 Kbps\r\nWidth                            : 1 280 pixels\r\nHeight                           : 720 pixels\r\nDisplay aspect ratio             : 16:9\r\nFrame rate mode                  : Variable\r\nFrame rate                       : 29.970 fps\r\nResolution                       : 8 bits\r\nColorimetry                      : 4:2:0\r\nScan type                        : Progressive\r\nBits/(Pixel*Frame)               : 0.130\r\nStream size                      : 2.09 GiB (90%)\r\nTitle                            : Summer.Of.Dreams.2016.720p.HDTV.x264-TheRealTTL\r\nLanguage                         : English\r\n\r\n\r\nAudio\r\nID                               : 2\r\nFormat                           : AC-3\r\nFormat/Info                      : Audio Coding 3\r\nCodec ID                         : A_AC3\r\nDuration                         : 1h 23mn\r\nBit rate mode                    : Constant\r\nBit rate                         : 320 Kbps\r\nChannel(s)                       : 2 channels\r\nChannel positions                : L R\r\nSampling rate                    : 48.0 KHz\r\nStream size                      : 192 MiB (8%)\r\nTitle                            : Summer.Of.Dreams.2016.720p.HDTV.x264-TheRealTTL\r\nLanguage                         : English\r\n\r\nMenu\r\n00:00:00.000                     : :Chapter 1\r\n00:06:00.000                     : :Chapter 2\r\n00:12:00.000                     : :Chapter 3\r\n00:18:00.000                     : :Chapter 4\r\n00:24:00.000                     : :Chapter 5\r\n00:30:00.000                     : :Chapter 6\r\n00:36:00.000                     : :Chapter 7\r\n00:42:00.000                     : :Chapter 8\r\n00:48:00.000                     : :Chapter 9\r\n00:54:00.000                     : :Chapter 10\r\n01:00:00.000                     : :Chapter 11\r\n01:06:00.000                     : :Chapter 12\r\n01:12:00.000                     : :Chapter 13\r\n01:18:00.000                     : :Chapter 14","torrent":{"xt":"urn:btih:f0337755bfcd866e8d2846ddf4a34732b6a85149","amp;dn":"Summer.Of.Dreams.2016.720p.HDTV.x264-TheRealTTL","amp;tr":["udp%3A%2F%2Ftracker.leechers-paradise.org%3A6969","udp%3A%2F%2Fzer0day.ch%3A1337","udp%3A%2F%2Fopen.demonii.com%3A1337","udp%3A%2F%2Ftracker.coppersurfer.tk%3A6969","udp%3A%2F%2Fexodus.desync.com%3A6969"],"infoHash":"f0337755bfcd866e8d2846ddf4a34732b6a85149","infoHashBuffer":{"type":"Buffer","data":[240,51,119,85,191,205,134,110,141,40,70,221,244,163,71,50,182,168,81,73]},"announce":[],"urlList":[]}}